<mxfile host="app.diagrams.net" modified="2024-01-01T00:00:00.000Z" agent="ERD Export" version="22.0.0" etag="ERD_GreenLoop_v1" type="device">
  <diagram name="GreenLoop ERD - Full" id="greenloop-erd-full">
    <mxGraphModel dx="1434" dy="844" grid="1" gridSize="10" guides="1" tooltips="1" connect="1" arrows="1" fold="1" page="1" pageScale="1" pageWidth="3300" pageHeight="2400" math="0" shadow="0">
      <root>
        <mxCell id="0" />
        <mxCell id="1" parent="0" />
        
        <!-- USER Entity -->
        <mxCell id="user-entity" value="USER" style="swimlane;fontStyle=1;align=center;verticalAlign=top;childLayout=stackLayout;horizontal=1;startSize=30;horizontalStack=0;resizeParent=1;resizeParentMax=0;resizeLast=0;collapsible=1;marginBottom=0;fillColor=#dae8fc;strokeColor=#6c8ebf;" vertex="1" parent="1">
          <mxGeometry x="100" y="100" width="200" height="280" as="geometry" />
        </mxCell>
        <mxCell id="user-pk" value="PK: user_id (UUID)" style="text;strokeColor=none;fillColor=none;align=left;verticalAlign=top;spacingLeft=4;spacingRight=4;overflow=hidden;rotatable=0;points=[[0,0.5],[1,0.5]];portConstraint=eastwest;fontStyle=4" vertex="1" parent="user-entity">
          <mxGeometry y="30" width="200" height="26" as="geometry" />
        </mxCell>
        <mxCell id="user-attrs" value="email (unique)&#xa;username (unique)&#xa;password_hash&#xa;first_name, last_name&#xa;phone&#xa;user_type (enum)&#xa;role (enum)&#xa;sustainability_points&#xa;trust_score&#xa;is_verified&#xa;created_at, updated_at" style="text;strokeColor=none;fillColor=none;align=left;verticalAlign=top;spacingLeft=4;spacingRight=4;overflow=hidden;rotatable=0;points=[[0,0.5],[1,0.5]];portConstraint=eastwest;" vertex="1" parent="user-entity">
          <mxGeometry y="56" width="200" height="224" as="geometry" />
        </mxCell>

        <!-- ITEM Entity -->
        <mxCell id="item-entity" value="ITEM" style="swimlane;fontStyle=1;align=center;verticalAlign=top;childLayout=stackLayout;horizontal=1;startSize=30;horizontalStack=0;resizeParent=1;resizeParentMax=0;resizeLast=0;collapsible=1;marginBottom=0;fillColor=#fff2cc;strokeColor=#d6b656;" vertex="1" parent="1">
          <mxGeometry x="400" y="100" width="200" height="280" as="geometry" />
        </mxCell>
        <mxCell id="item-pk" value="PK: item_id (UUID)" style="text;strokeColor=none;fillColor=none;align=left;verticalAlign=top;spacingLeft=4;spacingRight=4;overflow=hidden;rotatable=0;points=[[0,0.5],[1,0.5]];portConstraint=eastwest;fontStyle=4" vertex="1" parent="item-entity">
          <mxGeometry y="30" width="200" height="26" as="geometry" />
        </mxCell>
        <mxCell id="item-fks" value="FK: category_id&#xa;FK: brand_id&#xa;FK: current_owner_id" style="text;strokeColor=none;fillColor=none;align=left;verticalAlign=top;spacingLeft=4;spacingRight=4;overflow=hidden;rotatable=0;points=[[0,0.5],[1,0.5]];portConstraint=eastwest;fontStyle=2" vertex="1" parent="item-entity">
          <mxGeometry y="56" width="200" height="54" as="geometry" />
        </mxCell>
        <mxCell id="item-attrs" value="item_code (unique)&#xa;name, description&#xa;size, color&#xa;material_composition (JSON)&#xa;condition_score&#xa;item_status (enum)&#xa;carbon_footprint_kg&#xa;images (JSON)&#xa;created_at" style="text;strokeColor=none;fillColor=none;align=left;verticalAlign=top;spacingLeft=4;spacingRight=4;overflow=hidden;rotatable=0;points=[[0,0.5],[1,0.5]];portConstraint=eastwest;" vertex="1" parent="item-entity">
          <mxGeometry y="110" width="200" height="170" as="geometry" />
        </mxCell>

        <!-- BRAND Entity -->
        <mxCell id="brand-entity" value="BRAND" style="swimlane;fontStyle=1;align=center;verticalAlign=top;childLayout=stackLayout;horizontal=1;startSize=30;horizontalStack=0;resizeParent=1;resizeParentMax=0;resizeLast=0;collapsible=1;marginBottom=0;fillColor=#f8cecc;strokeColor=#b85450;" vertex="1" parent="1">
          <mxGeometry x="700" y="100" width="200" height="160" as="geometry" />
        </mxCell>
        <mxCell id="brand-pk" value="PK: brand_id (UUID)" style="text;strokeColor=none;fillColor=none;align=left;verticalAlign=top;spacingLeft=4;spacingRight=4;overflow=hidden;rotatable=0;points=[[0,0.5],[1,0.5]];portConstraint=eastwest;fontStyle=4" vertex="1" parent="brand-entity">
          <mxGeometry y="30" width="200" height="26" as="geometry" />
        </mxCell>
        <mxCell id="brand-attrs" value="name&#xa;slug (unique)&#xa;description&#xa;sustainability_rating&#xa;eco_certification (JSON)&#xa;is_verified&#xa;created_at" style="text;strokeColor=none;fillColor=none;align=left;verticalAlign=top;spacingLeft=4;spacingRight=4;overflow=hidden;rotatable=0;points=[[0,0.5],[1,0.5]];portConstraint=eastwest;" vertex="1" parent="brand-entity">
          <mxGeometry y="56" width="200" height="104" as="geometry" />
        </mxCell>

        <!-- CATEGORY Entity -->
        <mxCell id="category-entity" value="CATEGORY" style="swimlane;fontStyle=1;align=center;verticalAlign=top;childLayout=stackLayout;horizontal=1;startSize=30;horizontalStack=0;resizeParent=1;resizeParentMax=0;resizeLast=0;collapsible=1;marginBottom=0;fillColor=#e1d5e7;strokeColor=#9673a6;" vertex="1" parent="1">
          <mxGeometry x="700" y="300" width="200" height="140" as="geometry" />
        </mxCell>
        <mxCell id="category-pk" value="PK: category_id (UUID)" style="text;strokeColor=none;fillColor=none;align=left;verticalAlign=top;spacingLeft=4;spacingRight=4;overflow=hidden;rotatable=0;points=[[0,0.5],[1,0.5]];portConstraint=eastwest;fontStyle=4" vertex="1" parent="category-entity">
          <mxGeometry y="30" width="200" height="26" as="geometry" />
        </mxCell>
        <mxCell id="category-fk" value="FK: parent_category_id" style="text;strokeColor=none;fillColor=none;align=left;verticalAlign=top;spacingLeft=4;spacingRight=4;overflow=hidden;rotatable=0;points=[[0,0.5],[1,0.5]];portConstraint=eastwest;fontStyle=2" vertex="1" parent="category-entity">
          <mxGeometry y="56" width="200" height="26" as="geometry" />
        </mxCell>
        <mxCell id="category-attrs" value="name, slug (unique)&#xa;description&#xa;is_active&#xa;created_at" style="text;strokeColor=none;fillColor=none;align=left;verticalAlign=top;spacingLeft=4;spacingRight=4;overflow=hidden;rotatable=0;points=[[0,0.5],[1,0.5]];portConstraint=eastwest;" vertex="1" parent="category-entity">
          <mxGeometry y="82" width="200" height="58" as="geometry" />
        </mxCell>

        <!-- MARKETPLACE_LISTING Entity -->
        <mxCell id="listing-entity" value="MARKETPLACE_LISTING" style="swimlane;fontStyle=1;align=center;verticalAlign=top;childLayout=stackLayout;horizontal=1;startSize=30;horizontalStack=0;resizeParent=1;resizeParentMax=0;resizeLast=0;collapsible=1;marginBottom=0;fillColor=#d5e8d4;strokeColor=#82b366;" vertex="1" parent="1">
          <mxGeometry x="400" y="450" width="200" height="200" as="geometry" />
        </mxCell>
        <mxCell id="listing-pk" value="PK: listing_id (UUID)" style="text;strokeColor=none;fillColor=none;align=left;verticalAlign=top;spacingLeft=4;spacingRight=4;overflow=hidden;rotatable=0;points=[[0,0.5],[1,0.5]];portConstraint=eastwest;fontStyle=4" vertex="1" parent="listing-entity">
          <mxGeometry y="30" width="200" height="26" as="geometry" />
        </mxCell>
        <mxCell id="listing-fks" value="FK: item_id&#xa;FK: seller_id" style="text;strokeColor=none;fillColor=none;align=left;verticalAlign=top;spacingLeft=4;spacingRight=4;overflow=hidden;rotatable=0;points=[[0,0.5],[1,0.5]];portConstraint=eastwest;fontStyle=2" vertex="1" parent="listing-entity">
          <mxGeometry y="56" width="200" height="40" as="geometry" />
        </mxCell>
        <mxCell id="listing-attrs" value="title, description&#xa;listing_type (enum)&#xa;price&#xa;rental_price_per_day&#xa;status (enum)&#xa;view_count&#xa;created_at" style="text;strokeColor=none;fillColor=none;align=left;verticalAlign=top;spacingLeft=4;spacingRight=4;overflow=hidden;rotatable=0;points=[[0,0.5],[1,0.5]];portConstraint=eastwest;" vertex="1" parent="listing-entity">
          <mxGeometry y="96" width="200" height="104" as="geometry" />
        </mxCell>

        <!-- ORDER Entity -->
        <mxCell id="order-entity" value="ORDER" style="swimlane;fontStyle=1;align=center;verticalAlign=top;childLayout=stackLayout;horizontal=1;startSize=30;horizontalStack=0;resizeParent=1;resizeParentMax=0;resizeLast=0;collapsible=1;marginBottom=0;fillColor=#ffe6cc;strokeColor=#d79b00;" vertex="1" parent="1">
          <mxGeometry x="100" y="450" width="200" height="200" as="geometry" />
        </mxCell>
        <mxCell id="order-pk" value="PK: order_id (UUID)" style="text;strokeColor=none;fillColor=none;align=left;verticalAlign=top;spacingLeft=4;spacingRight=4;overflow=hidden;rotatable=0;points=[[0,0.5],[1,0.5]];portConstraint=eastwest;fontStyle=4" vertex="1" parent="order-entity">
          <mxGeometry y="30" width="200" height="26" as="geometry" />
        </mxCell>
        <mxCell id="order-fks" value="FK: buyer_id&#xa;FK: seller_id&#xa;FK: listing_id&#xa;FK: item_id" style="text;strokeColor=none;fillColor=none;align=left;verticalAlign=top;spacingLeft=4;spacingRight=4;overflow=hidden;rotatable=0;points=[[0,0.5],[1,0.5]];portConstraint=eastwest;fontStyle=2" vertex="1" parent="order-entity">
          <mxGeometry y="56" width="200" height="68" as="geometry" />
        </mxCell>
        <mxCell id="order-attrs" value="order_number (unique)&#xa;order_type (enum)&#xa;total_amount&#xa;payment_status (enum)&#xa;order_status (enum)&#xa;created_at" style="text;strokeColor=none;fillColor=none;align=left;verticalAlign=top;spacingLeft=4;spacingRight=4;overflow=hidden;rotatable=0;points=[[0,0.5],[1,0.5]];portConstraint=eastwest;" vertex="1" parent="order-entity">
          <mxGeometry y="124" width="200" height="76" as="geometry" />
        </mxCell>

        <!-- POST Entity -->
        <mxCell id="post-entity" value="POST" style="swimlane;fontStyle=1;align=center;verticalAlign=top;childLayout=stackLayout;horizontal=1;startSize=30;horizontalStack=0;resizeParent=1;resizeParentMax=0;resizeLast=0;collapsible=1;marginBottom=0;fillColor=#f5f5f5;strokeColor=#666666;" vertex="1" parent="1">
          <mxGeometry x="100" y="700" width="200" height="160" as="geometry" />
        </mxCell>
        <mxCell id="post-pk" value="PK: post_id (UUID)" style="text;strokeColor=none;fillColor=none;align=left;verticalAlign=top;spacingLeft=4;spacingRight=4;overflow=hidden;rotatable=0;points=[[0,0.5],[1,0.5]];portConstraint=eastwest;fontStyle=4" vertex="1" parent="post-entity">
          <mxGeometry y="30" width="200" height="26" as="geometry" />
        </mxCell>
        <mxCell id="post-fks" value="FK: user_id&#xa;FK: item_id (optional)&#xa;FK: listing_id (optional)" style="text;strokeColor=none;fillColor=none;align=left;verticalAlign=top;spacingLeft=4;spacingRight=4;overflow=hidden;rotatable=0;points=[[0,0.5],[1,0.5]];portConstraint=eastwest;fontStyle=2" vertex="1" parent="post-entity">
          <mxGeometry y="56" width="200" height="54" as="geometry" />
        </mxCell>
        <mxCell id="post-attrs" value="content&#xa;post_type (enum)&#xa;likes_count&#xa;visibility (enum)&#xa;created_at" style="text;strokeColor=none;fillColor=none;align=left;verticalAlign=top;spacingLeft=4;spacingRight=4;overflow=hidden;rotatable=0;points=[[0,0.5],[1,0.5]];portConstraint=eastwest;" vertex="1" parent="post-entity">
          <mxGeometry y="110" width="200" height="50" as="geometry" />
        </mxCell>

        <!-- COLLECTION_REQUEST Entity -->
        <mxCell id="collection-entity" value="COLLECTION_REQUEST" style="swimlane;fontStyle=1;align=center;verticalAlign=top;childLayout=stackLayout;horizontal=1;startSize=30;horizontalStack=0;resizeParent=1;resizeParentMax=0;resizeLast=0;collapsible=1;marginBottom=0;fillColor=#b1ddf0;strokeColor=#10739e;" vertex="1" parent="1">
          <mxGeometry x="700" y="500" width="220" height="160" as="geometry" />
        </mxCell>
        <mxCell id="collection-pk" value="PK: request_id (UUID)" style="text;strokeColor=none;fillColor=none;align=left;verticalAlign=top;spacingLeft=4;spacingRight=4;overflow=hidden;rotatable=0;points=[[0,0.5],[1,0.5]];portConstraint=eastwest;fontStyle=4" vertex="1" parent="collection-entity">
          <mxGeometry y="30" width="220" height="26" as="geometry" />
        </mxCell>
        <mxCell id="collection-fks" value="FK: user_id&#xa;FK: pickup_address_id&#xa;FK: assigned_collector_id" style="text;strokeColor=none;fillColor=none;align=left;verticalAlign=top;spacingLeft=4;spacingRight=4;overflow=hidden;rotatable=0;points=[[0,0.5],[1,0.5]];portConstraint=eastwest;fontStyle=2" vertex="1" parent="collection-entity">
          <mxGeometry y="56" width="220" height="54" as="geometry" />
        </mxCell>
        <mxCell id="collection-attrs" value="preferred_date&#xa;status (enum)&#xa;estimated_items_count&#xa;created_at" style="text;strokeColor=none;fillColor=none;align=left;verticalAlign=top;spacingLeft=4;spacingRight=4;overflow=hidden;rotatable=0;points=[[0,0.5],[1,0.5]];portConstraint=eastwest;" vertex="1" parent="collection-entity">
          <mxGeometry y="110" width="220" height="50" as="geometry" />
        </mxCell>

        <!-- REVIEW Entity -->
        <mxCell id="review-entity" value="REVIEW" style="swimlane;fontStyle=1;align=center;verticalAlign=top;childLayout=stackLayout;horizontal=1;startSize=30;horizontalStack=0;resizeParent=1;resizeParentMax=0;resizeLast=0;collapsible=1;marginBottom=0;fillColor=#fad7ac;strokeColor=#b46504;" vertex="1" parent="1">
          <mxGeometry x="400" y="700" width="200" height="160" as="geometry" />
        </mxCell>
        <mxCell id="review-pk" value="PK: review_id (UUID)" style="text;strokeColor=none;fillColor=none;align=left;verticalAlign=top;spacingLeft=4;spacingRight=4;overflow=hidden;rotatable=0;points=[[0,0.5],[1,0.5]];portConstraint=eastwest;fontStyle=4" vertex="1" parent="review-entity">
          <mxGeometry y="30" width="200" height="26" as="geometry" />
        </mxCell>
        <mxCell id="review-fks" value="FK: reviewer_id&#xa;FK: reviewed_user_id&#xa;FK: item_id, order_id" style="text;strokeColor=none;fillColor=none;align=left;verticalAlign=top;spacingLeft=4;spacingRight=4;overflow=hidden;rotatable=0;points=[[0,0.5],[1,0.5]];portConstraint=eastwest;fontStyle=2" vertex="1" parent="review-entity">
          <mxGeometry y="56" width="200" height="54" as="geometry" />
        </mxCell>
        <mxCell id="review-attrs" value="rating (1-5)&#xa;title, content&#xa;quality_rating&#xa;is_verified&#xa;created_at" style="text;strokeColor=none;fillColor=none;align=left;verticalAlign=top;spacingLeft=4;spacingRight=4;overflow=hidden;rotatable=0;points=[[0,0.5],[1,0.5]];portConstraint=eastwest;" vertex="1" parent="review-entity">
          <mxGeometry y="110" width="200" height="50" as="geometry" />
        </mxCell>

        <!-- Relationships -->
        <!-- USER to ITEM -->
        <mxCell id="rel-user-item" value="" style="edgeStyle=orthogonalEdgeStyle;rounded=0;orthogonalLoop=1;jettySize=auto;html=1;endArrow=ERmany;endFill=0;startArrow=ERone;startFill=0;" edge="1" parent="1" source="user-entity" target="item-entity">
          <mxGeometry relative="1" as="geometry" />
        </mxCell>
        <mxCell id="rel-user-item-label" value="owns" style="edgeLabel;html=1;align=center;verticalAlign=middle;resizable=0;points=[];" vertex="1" connectable="0" parent="rel-user-item">
          <mxGeometry x="-0.2" y="1" relative="1" as="geometry">
            <mxPoint as="offset" />
          </mxGeometry>
        </mxCell>

        <!-- BRAND to ITEM -->
        <mxCell id="rel-brand-item" value="" style="edgeStyle=orthogonalEdgeStyle;rounded=0;orthogonalLoop=1;jettySize=auto;html=1;endArrow=ERmany;endFill=0;startArrow=ERone;startFill=0;" edge="1" parent="1" source="brand-entity" target="item-entity">
          <mxGeometry relative="1" as="geometry" />
        </mxCell>
        <mxCell id="rel-brand-item-label" value="manufactures" style="edgeLabel;html=1;align=center;verticalAlign=middle;resizable=0;points=[];" vertex="1" connectable="0" parent="rel-brand-item">
          <mxGeometry x="-0.2" y="1" relative="1" as="geometry">
            <mxPoint as="offset" />
          </mxGeometry>
        </mxCell>

        <!-- CATEGORY to ITEM -->
        <mxCell id="rel-category-item" value="" style="edgeStyle=orthogonalEdgeStyle;rounded=0;orthogonalLoop=1;jettySize=auto;html=1;endArrow=ERmany;endFill=0;startArrow=ERone;startFill=0;" edge="1" parent="1" source="category-entity" target="item-entity">
          <mxGeometry relative="1" as="geometry" />
        </mxCell>
        <mxCell id="rel-category-item-label" value="categorizes" style="edgeLabel;html=1;align=center;verticalAlign=middle;resizable=0;points=[];" vertex="1" connectable="0" parent="rel-category-item">
          <mxGeometry x="-0.2" y="1" relative="1" as="geometry">
            <mxPoint as="offset" />
          </mxGeometry>
        </mxCell>

        <!-- ITEM to LISTING -->
        <mxCell id="rel-item-listing" value="" style="edgeStyle=orthogonalEdgeStyle;rounded=0;orthogonalLoop=1;jettySize=auto;html=1;endArrow=ERmany;endFill=0;startArrow=ERone;startFill=0;" edge="1" parent="1" source="item-entity" target="listing-entity">
          <mxGeometry relative="1" as="geometry" />
        </mxCell>
        <mxCell id="rel-item-listing-label" value="listed_as" style="edgeLabel;html=1;align=center;verticalAlign=middle;resizable=0;points=[];" vertex="1" connectable="0" parent="rel-item-listing">
          <mxGeometry x="-0.2" y="1" relative="1" as="geometry">
            <mxPoint as="offset" />
          </mxGeometry>
        </mxCell>

        <!-- USER to ORDER -->
        <mxCell id="rel-user-order" value="" style="edgeStyle=orthogonalEdgeStyle;rounded=0;orthogonalLoop=1;jettySize=auto;html=1;endArrow=ERmany;endFill=0;startArrow=ERone;startFill=0;" edge="1" parent="1" source="user-entity" target="order-entity">
          <mxGeometry relative="1" as="geometry" />
        </mxCell>
        <mxCell id="rel-user-order-label" value="places" style="edgeLabel;html=1;align=center;verticalAlign=middle;resizable=0;points=[];" vertex="1" connectable="0" parent="rel-user-order">
          <mxGeometry x="-0.2" y="1" relative="1" as="geometry">
            <mxPoint as="offset" />
          </mxGeometry>
        </mxCell>

        <!-- LISTING to ORDER -->
        <mxCell id="rel-listing-order" value="" style="edgeStyle=orthogonalEdgeStyle;rounded=0;orthogonalLoop=1;jettySize=auto;html=1;endArrow=ERmany;endFill=0;startArrow=ERone;startFill=0;" edge="1" parent="1" source="listing-entity" target="order-entity">
          <mxGeometry relative="1" as="geometry" />
        </mxCell>
        <mxCell id="rel-listing-order-label" value="generates" style="edgeLabel;html=1;align=center;verticalAlign=middle;resizable=0;points=[];" vertex="1" connectable="0" parent="rel-listing-order">
          <mxGeometry x="-0.2" y="1" relative="1" as="geometry">
            <mxPoint as="offset" />
          </mxGeometry>
        </mxCell>

        <!-- USER to POST -->
        <mxCell id="rel-user-post" value="" style="edgeStyle=orthogonalEdgeStyle;rounded=0;orthogonalLoop=1;jettySize=auto;html=1;endArrow=ERmany;endFill=0;startArrow=ERone;startFill=0;" edge="1" parent="1" source="user-entity" target="post-entity">
          <mxGeometry relative="1" as="geometry" />
        </mxCell>
        <mxCell id="rel-user-post-label" value="creates" style="edgeLabel;html=1;align=center;verticalAlign=middle;resizable=0;points=[];" vertex="1" connectable="0" parent="rel-user-post">
          <mxGeometry x="-0.2" y="1" relative="1" as="geometry">
            <mxPoint as="offset" />
          </mxGeometry>
        </mxCell>

        <!-- USER to COLLECTION_REQUEST -->
        <mxCell id="rel-user-collection" value="" style="edgeStyle=orthogonalEdgeStyle;rounded=0;orthogonalLoop=1;jettySize=auto;html=1;endArrow=ERmany;endFill=0;startArrow=ERone;startFill=0;" edge="1" parent="1" source="user-entity" target="collection-entity">
          <mxGeometry relative="1" as="geometry" />
        </mxCell>
        <mxCell id="rel-user-collection-label" value="submits" style="edgeLabel;html=1;align=center;verticalAlign=middle;resizable=0;points=[];" vertex="1" connectable="0" parent="rel-user-collection">
          <mxGeometry x="-0.2" y="1" relative="1" as="geometry">
            <mxPoint as="offset" />
          </mxGeometry>
        </mxCell>

        <!-- USER to REVIEW -->
        <mxCell id="rel-user-review" value="" style="edgeStyle=orthogonalEdgeStyle;rounded=0;orthogonalLoop=1;jettySize=auto;html=1;endArrow=ERmany;endFill=0;startArrow=ERone;startFill=0;" edge="1" parent="1" source="user-entity" target="review-entity">
          <mxGeometry relative="1" as="geometry" />
        </mxCell>
        <mxCell id="rel-user-review-label" value="writes" style="edgeLabel;html=1;align=center;verticalAlign=middle;resizable=0;points=[];" vertex="1" connectable="0" parent="rel-user-review">
          <mxGeometry x="-0.2" y="1" relative="1" as="geometry">
            <mxPoint as="offset" />
          </mxGeometry>
        </mxCell>

        <!-- Legend -->
        <mxCell id="legend" value="LEGEND" style="swimlane;fontStyle=1;align=center;verticalAlign=top;childLayout=stackLayout;horizontal=1;startSize=30;horizontalStack=0;resizeParent=1;resizeParentMax=0;resizeLast=0;collapsible=1;marginBottom=0;fillColor=#ffffff;strokeColor=#000000;" vertex="1" parent="1">
          <mxGeometry x="1000" y="100" width="280" height="220" as="geometry" />
        </mxCell>
        <mxCell id="legend-items" value="Color Coding:&#xa;&#xa;🔵 Blue - User Management&#xa;🟡 Yellow - Item &amp; Catalog&#xa;🟢 Green - Marketplace&#xa;🟠 Orange - Orders&#xa;⚪ Gray - Social/Community&#xa;🔷 Light Blue - Collection System&#xa;🟣 Purple - Categories&#xa;🔴 Red - Brands&#xa;&#xa;Relationship Symbols:&#xa;|— One&#xa;}— Many" style="text;strokeColor=none;fillColor=none;align=left;verticalAlign=top;spacingLeft=4;spacingRight=4;overflow=hidden;rotatable=0;points=[[0,0.5],[1,0.5]];portConstraint=eastwest;" vertex="1" parent="legend">
          <mxGeometry y="30" width="280" height="190" as="geometry" />
        </mxCell>

        <!-- Title -->
        <mxCell id="title" value="GreenLoop Circular Fashion - Entity Relationship Diagram" style="text;html=1;strokeColor=none;fillColor=none;align=center;verticalAlign=middle;whiteSpace=wrap;rounded=0;fontSize=24;fontStyle=1" vertex="1" parent="1">
          <mxGeometry x="100" y="20" width="800" height="40" as="geometry" />
        </mxCell>

        <!-- Note -->
        <mxCell id="note" value="This diagram shows core entities and primary relationships.&#xa;For complete details including all 32 entities, see ERD_Conceptual.md" style="text;html=1;strokeColor=#666666;fillColor=#f5f5f5;align=left;verticalAlign=top;whiteSpace=wrap;rounded=1;fontSize=12;fontColor=#333333;" vertex="1" parent="1">
          <mxGeometry x="1000" y="350" width="280" height="80" as="geometry" />
        </mxCell>

      </root>
    </mxGraphModel>
  </diagram>
</mxfile>


